<?xml version="1.0" encoding="UTF-8" standalone="no"?>
<svg
   xmlns:dc="http://purl.org/dc/elements/1.1/"
   xmlns:cc="http://creativecommons.org/ns#"
   xmlns:rdf="http://www.w3.org/1999/02/22-rdf-syntax-ns#"
   xmlns:svg="http://www.w3.org/2000/svg"
   xmlns="http://www.w3.org/2000/svg"
   id="svg26"
   xml:space="preserve"
   viewBox="0 0 241 241"
   height="241"
   width="241"
   version="1.1"><metadata
     id="metadata30"><rdf:RDF><cc:Work
         rdf:about=""><dc:format>image/svg+xml</dc:format><dc:type
           rdf:resource="http://purl.org/dc/dcmitype/StillImage" /></cc:Work></rdf:RDF></metadata><desc
     id="desc2">Created with Fabric.js 1.7.22</desc><defs
     id="defs4" /><g
     id="g10"
     transform="translate(111.96,242.76)"><g
       id="text8"
       style="font-weight:normal;font-size:141px;font-family:Lato;white-space:pre;opacity:1;fill:#000000;fill-rule:nonzero;stroke:none;stroke-width:1;stroke-linecap:butt;stroke-linejoin:miter;stroke-miterlimit:10;stroke-dasharray:none"
       aria-label="M"><path
         id="path32"
         style="white-space:pre;opacity:1;fill:#000000;stroke:none;stroke-width:0;stroke-linecap:butt;stroke-linejoin:miter;stroke-miterlimit:4;stroke-dasharray:none"
         d="M 53.156999,-136.2765 V -35.25 h -11.985 v -74.2365 q 0,-1.4805 0.0705,-3.1725 0.141,-1.692 0.282,-3.4545 l -34.6859996,63.168 q -1.6215,3.1725 -4.935,3.1725 h -1.97400001 q -3.31349999,0 -4.93499999,-3.1725 l -35.3910004,-63.45 q 0.423,3.7365 0.423,6.909 V -35.25 h -11.985 v -101.0265 h 10.0815 q 1.833,0 2.82,0.3525 0.987,0.3525 1.9035,1.974 l 34.8975004,62.181 q 0.846,1.692 1.62149999,3.525 0.846,1.833 1.551,3.7365 0.70500001,-1.9035 1.48050001,-3.7365 0.7755,-1.9035 1.692,-3.5955 L 38.351999,-133.95 q 0.846,-1.6215 1.833,-1.974 1.0575,-0.3525 2.8905,-0.3525 z" /></g></g><g
     id="g16"
     transform="translate(160.12,93.11)"><g
       id="text14"
       style="font-weight:normal;font-size:153px;font-family:Lato;white-space:pre;opacity:1;fill:#000000;fill-rule:nonzero;stroke:none;stroke-width:1;stroke-linecap:butt;stroke-linejoin:miter;stroke-miterlimit:10;stroke-dasharray:none"
       aria-label="A"><path
         id="path35"
         style="white-space:pre;opacity:1;fill:#000000;stroke:none;stroke-width:0;stroke-linecap:butt;stroke-linejoin:miter;stroke-miterlimit:4;stroke-dasharray:none"
         d="M 20.196,7.4919986 2.9834995,-37.107501 q -0.765,-1.989 -1.6065,-4.59 -0.84149996,-2.6775 -1.60649996,-5.661 -1.60650004,6.1965 -3.28950004,10.3275 L -20.7315,7.4919986 Z M 51.102,48.189999 H 39.627 q -1.989,0 -3.213,-0.9945 -1.224,-0.9945 -1.836,-2.5245 l -10.251,-26.469 h -49.1895 l -10.251,26.469 q -0.459,1.377 -1.7595,2.448 -1.3005,1.071 -3.213,1.071 h -11.475 l 43.8344995,-109.6245 h 14.994 z" /></g></g><g
     id="g22"
     transform="translate(78.13,98.97)"><g
       id="text20"
       style="font-weight:normal;font-size:135px;font-family:Lato;white-space:pre;opacity:1;fill:#000000;fill-rule:nonzero;stroke:none;stroke-width:1;stroke-linecap:butt;stroke-linejoin:miter;stroke-miterlimit:10;stroke-dasharray:none"
       aria-label="N"><path
         id="path38"
         style="white-space:pre;opacity:1;fill:#000000;stroke:none;stroke-width:0;stroke-linecap:butt;stroke-linejoin:miter;stroke-miterlimit:4;stroke-dasharray:none"
         d="M 39.690001,-54.2075 V 42.52 h -6.5475 q -1.5525,0 -2.6325,-0.54 -1.0125,-0.54 -2.025,-1.8225 l -55.9575,-72.9 q 0.135,1.6875 0.2025,3.3075 0.0675,1.62 0.0675,3.0375 V 42.52 h -11.475 v -96.7275 h 6.75 q 0.8775,0 1.485,0.135 0.6075,0.0675 1.08,0.3375 0.4725,0.2025 0.945,0.675 0.4725,0.405 1.0125,1.08 l 55.9575,72.8325 q -0.135,-1.755 -0.27,-3.375 -0.0675,-1.6875 -0.0675,-3.1725 v -68.5125 z" /></g></g><circle
     id="circle24"
     transform="translate(121.1 120.7) scale(2.37 2.37) "
     style="stroke: rgb(0,0,0); stroke-width: 0; stroke-dasharray: none; stroke-linecap: butt; stroke-linejoin: miter; stroke-miterlimit: 10; fill: rgb(227,242,253); fill-opacity: 0.53; fill-rule: nonzero; opacity: 1;"
     r="50"
     cy="0"
     cx="0" /></svg>